<svg xmlns="http://www.w3.org/2000/svg" viewBox="0 0 231 52" width="231" height="52" role="img" aria-label="Fidelity Investments"><path fill="#181818" fill-rule="evenodd" d="M102.93,50.77C102.41,50.67 101.25,49.85 101.25,49.58C101.26,49.18 101.50,49.08 102.62,49.02L103.77,48.97L104.19,49.43C104.57,49.84 104.67,49.89 105.15,49.85C105.60,49.82 105.69,49.77 105.73,49.52C105.81,48.96 104.90,48.40 103.50,48.13C102.30,47.91 102.12,47.76 102.13,46.97C102.13,46.21 102.14,46.20 102.86,45.64C103.56,45.09 103.91,45.02 106.26,44.92C108.28,44.84 108.93,44.93 109.41,45.35C109.69,45.59 109.68,45.69 109.38,46.00C109.06,46.31 108.49,46.32 107.29,46.04C106.25,45.80 105.44,45.97 105.44,46.44C105.44,46.81 105.97,47.00 107.02,47.00L107.97,47.00L108.55,47.68C109.15,48.38 109.23,48.67 109.00,49.33C108.89,49.63 108.66,49.80 107.72,50.24C106.57,50.78 106.55,50.79 105.00,50.82C104.14,50.84 103.21,50.82 102.93,50.77ZM183.75,50.80C182.59,50.60 182.00,50.18 182.00,49.55C182.00,49.12 182.41,48.97 183.39,49.02C184.15,49.07 184.29,49.11 184.66,49.47C185.25,50.05 186.12,50.02 186.12,49.42C186.12,48.88 185.05,48.27 183.74,48.07C182.81,47.92 182.46,46.89 183.05,46.00C183.58,45.20 183.90,45.10 186.38,44.97C188.84,44.84 189.49,44.90 189.83,45.26C190.03,45.49 190.04,45.55 189.87,45.85C189.57,46.38 189.15,46.46 188.22,46.15C187.22,45.81 186.49,45.79 186.21,46.10C185.67,46.70 186.13,47.00 187.57,47.00C188.48,47.00 188.51,47.01 188.74,47.39C188.87,47.60 189.15,47.88 189.36,48.01C190.23,48.54 189.66,49.53 188.04,50.28C187.13,50.71 186.96,50.74 185.56,50.80C184.74,50.83 183.92,50.83 183.75,50.80ZM50.91,50.50C50.49,50.33 50.45,49.88 50.75,48.80C50.90,48.27 51.07,47.50 51.13,47.10C51.25,46.27 51.93,45.19 52.48,44.98C52.87,44.84 53.70,44.95 54.11,45.21C54.43,45.42 54.44,45.27 53.96,47.38C53.77,48.17 53.46,49.06 53.17,49.62L52.69,50.56L51.94,50.59C51.52,50.60 51.06,50.56 50.91,50.50ZM60.32,50.35C60.02,49.92 60.08,49.28 60.49,48.56C60.71,48.18 60.94,47.48 61.05,46.89C61.40,45.08 61.57,44.96 63.93,44.99C65.69,45.01 65.81,45.05 65.95,45.75C66.29,47.52 66.85,47.58 67.69,45.93C67.88,45.55 68.14,45.18 68.28,45.11C68.61,44.93 69.60,44.94 69.82,45.13C70.19,45.44 69.96,47.11 69.44,47.88C69.28,48.12 69.08,48.64 69.01,49.03C68.76,50.41 68.43,50.63 66.54,50.62L65.31,50.62L64.80,50.14C64.35,49.73 64.26,49.54 64.07,48.72C63.72,47.13 63.17,47.16 62.86,48.79C62.65,49.88 61.93,50.62 61.09,50.62C60.64,50.62 60.47,50.57 60.32,50.35ZM77.21,50.40C76.63,49.76 76.24,48.53 76.09,46.96C75.92,44.99 75.91,45.00 77.30,45.00C78.68,45.00 78.82,45.11 78.93,46.28C79.01,47.13 79.25,47.75 79.48,47.75C79.66,47.75 80.86,46.52 81.05,46.14C81.52,45.24 82.64,44.71 83.55,44.97C84.59,45.27 84.11,46.21 81.56,48.91C81.35,49.13 81.08,49.47 80.96,49.66C80.58,50.27 79.66,50.62 78.46,50.62C77.62,50.62 77.37,50.58 77.21,50.40ZM89.23,50.50C89.11,50.43 88.98,50.21 88.94,50.01C88.83,49.49 89.20,47.70 89.55,47.09C89.71,46.80 89.91,46.27 90.00,45.91C90.08,45.55 90.22,45.20 90.32,45.12C90.50,44.97 95.29,44.92 95.75,45.06C96.05,45.16 96.09,45.69 95.80,45.80C95.69,45.84 95.06,45.88 94.40,45.88C93.41,45.88 93.11,45.92 92.78,46.12C92.31,46.41 92.29,46.51 92.63,46.82C92.83,47.00 93.14,47.06 94.04,47.10C95.25,47.16 95.62,47.27 95.62,47.56C95.62,47.89 95.08,48.05 93.70,48.12C92.14,48.20 91.90,48.34 92.26,48.97C92.44,49.30 92.49,49.31 93.42,49.32C94.51,49.32 94.65,49.42 94.60,50.12L94.56,50.56L92.00,50.59C90.48,50.61 89.35,50.57 89.23,50.50ZM116.89,50.49C116.63,50.39 116.61,50.31 116.66,49.78C116.70,49.45 116.82,48.83 116.93,48.39C117.04,47.95 117.12,47.31 117.10,46.95L117.06,46.31L116.41,46.08C115.66,45.81 115.51,45.56 115.87,45.20C116.12,44.95 116.29,44.94 118.85,44.91C120.36,44.90 121.77,44.94 122.04,45.01C123.01,45.27 122.66,45.91 121.47,46.06C120.29,46.21 120.12,46.37 119.95,47.50C119.90,47.81 119.59,48.64 119.24,49.34L118.62,50.62L117.91,50.62C117.51,50.61 117.06,50.56 116.89,50.49ZM127.32,50.35C127.01,49.90 127.08,49.17 127.50,48.44C127.71,48.07 127.95,47.38 128.05,46.84C128.39,45.09 128.61,44.94 130.91,44.95C132.84,44.95 132.85,44.96 132.94,46.25C133.00,47.13 133.23,47.75 133.50,47.75C133.57,47.75 133.83,47.45 134.07,47.09C134.31,46.73 134.70,46.14 134.94,45.78C135.44,45.04 135.45,45.04 137.22,44.96C139.28,44.86 139.89,45.15 139.41,45.99C139.26,46.25 139.05,46.93 138.94,47.51C138.74,48.56 138.05,50.16 137.65,50.47C137.40,50.67 136.35,50.67 136.15,50.47C136.06,50.38 136.00,49.93 136.00,49.29C136.00,48.43 135.96,48.24 135.78,48.14C135.47,47.98 135.16,48.17 134.95,48.66C134.85,48.88 134.47,49.40 134.09,49.81L133.42,50.55L132.52,50.60C131.23,50.68 131.13,50.54 130.81,48.47C130.67,47.58 130.34,47.73 129.88,48.90C129.32,50.32 127.87,51.14 127.32,50.35ZM144.24,50.42C143.93,50.05 144.05,48.95 144.49,48.10C144.80,47.52 145.25,45.93 145.25,45.43C145.25,45.40 145.43,45.29 145.66,45.17C146.00,44.99 146.42,44.96 148.49,44.99C150.90,45.01 151.38,45.09 151.38,45.44C151.38,45.75 150.81,45.88 149.49,45.88C148.42,45.88 148.22,45.91 148.00,46.12C147.41,46.71 148.00,47.12 149.41,47.12C150.40,47.12 150.82,47.30 150.68,47.65C150.56,47.97 149.94,48.12 148.79,48.12C147.64,48.12 147.25,48.25 147.25,48.62C147.25,49.07 147.59,49.25 148.45,49.25C149.34,49.25 149.75,49.50 149.75,50.04C149.75,50.59 149.60,50.62 146.93,50.62C144.76,50.62 144.38,50.60 144.24,50.42ZM156.31,50.37C155.95,49.98 156.01,49.14 156.47,48.27C156.68,47.86 156.92,47.17 157.00,46.74C157.32,44.98 157.40,44.94 160.15,44.98C161.72,45.00 161.79,45.04 161.98,46.14C162.24,47.62 162.72,47.67 163.42,46.28C163.99,45.16 164.21,44.97 165.01,44.96C165.88,44.95 166.05,45.17 165.95,46.17C165.90,46.66 165.75,47.13 165.50,47.56C165.29,47.92 165.07,48.52 165.00,48.89C164.80,49.95 164.65,50.21 164.11,50.43C163.38,50.72 161.63,50.69 161.02,50.38C160.37,50.06 160.28,49.92 160.09,48.99C159.91,48.14 159.69,47.62 159.50,47.62C159.30,47.62 159.00,48.17 158.80,48.88C158.51,49.87 157.76,50.62 157.06,50.62C156.70,50.62 156.47,50.55 156.31,50.37ZM172.31,50.45C171.93,50.17 171.99,48.89 172.42,47.95C172.77,47.17 172.85,46.48 172.59,46.28C172.51,46.21 172.21,46.12 171.94,46.07C171.15,45.93 170.87,45.50 171.32,45.12C171.63,44.86 177.54,44.81 177.80,45.07C178.30,45.57 177.81,46.12 176.87,46.12C176.56,46.12 176.21,46.20 176.10,46.28C175.73,46.56 175.15,47.91 175.00,48.81C174.82,49.86 174.62,50.21 174.06,50.45C173.51,50.68 172.62,50.68 172.31,50.45ZM196.81,50.07C196.44,49.70 196.43,49.62 196.74,48.75C196.87,48.37 197.04,47.64 197.11,47.12C197.24,46.19 197.96,44.37 198.28,44.17C198.36,44.12 198.82,44.09 199.31,44.11C201.10,44.17 201.64,44.04 202.35,43.39C202.97,42.83 203.25,42.32 203.50,41.29C203.55,41.07 203.52,40.42 203.43,39.79C203.34,39.18 203.21,37.62 203.13,36.31C202.92,32.65 202.76,30.93 202.48,29.50C202.34,28.78 202.16,27.10 202.08,25.77C201.95,23.62 201.91,23.33 201.69,23.18C201.50,23.04 200.90,23.00 198.87,23.00C195.99,23.00 195.99,23.00 195.81,23.88C195.77,24.12 195.59,24.54 195.43,24.83C195.24,25.15 195.07,25.77 194.96,26.54C194.85,27.29 194.69,27.86 194.53,28.09C194.23,28.52 194.06,29.05 193.88,30.17C193.80,30.64 193.59,31.32 193.40,31.67C193.02,32.39 192.85,34.23 193.12,34.73C193.31,35.10 194.36,35.38 195.57,35.38C196.74,35.38 196.87,35.46 196.97,36.28C197.01,36.67 196.91,37.16 196.59,38.12C196.35,38.85 196.09,39.73 196.00,40.10C195.90,40.53 195.76,40.81 195.58,40.91C195.25,41.10 184.93,41.07 183.91,40.88C182.80,40.67 182.32,40.25 181.28,38.57C181.16,38.38 181.13,37.88 181.16,36.75C181.20,35.41 181.25,35.08 181.53,34.43C181.71,34.01 181.94,33.20 182.04,32.62C182.14,32.04 182.37,31.28 182.55,30.94C182.73,30.59 182.96,29.81 183.07,29.20C183.18,28.59 183.38,27.86 183.52,27.58C183.66,27.31 183.88,26.49 184.01,25.76C184.14,25.03 184.39,24.12 184.56,23.74C184.73,23.36 184.95,22.50 185.05,21.83C185.17,21.01 185.34,20.44 185.55,20.08C185.75,19.74 185.93,19.13 186.04,18.41C186.16,17.66 186.34,17.08 186.56,16.70C186.77,16.35 186.96,15.75 187.06,15.10C187.26,13.86 187.30,13.75 187.84,12.91C188.14,12.44 188.34,12.25 188.54,12.25C192.77,12.22 198.54,12.26 198.63,12.32C198.86,12.46 198.75,13.34 198.44,13.92C198.11,14.54 197.75,16.30 197.84,16.81C197.99,17.59 197.72,17.56 205.32,17.62C212.14,17.69 212.25,17.69 212.51,17.95C212.76,18.21 212.77,18.32 212.79,23.16C212.81,27.82 212.83,28.11 213.05,28.36C213.51,28.87 213.82,28.57 214.12,27.29C214.20,26.94 214.40,26.46 214.57,26.24C214.73,26.02 214.95,25.54 215.06,25.19C215.16,24.83 215.39,24.39 215.56,24.20C215.73,24.02 215.96,23.57 216.06,23.21C216.17,22.86 216.42,22.31 216.63,22.01C216.83,21.71 217.00,21.37 217.00,21.25C217.00,21.14 217.22,20.60 217.50,20.06C217.78,19.52 218.00,19.00 218.00,18.91C218.00,18.51 218.39,18.02 218.85,17.84C219.26,17.67 220.12,17.64 224.17,17.61C228.67,17.59 229.02,17.61 229.25,17.81C229.58,18.11 229.56,18.42 229.19,18.97C229.02,19.23 228.88,19.49 228.88,19.57C228.88,19.64 228.73,19.84 228.55,20.01C228.37,20.18 228.09,20.57 227.93,20.88C227.78,21.20 227.55,21.53 227.44,21.62C227.32,21.72 227.10,22.06 226.94,22.37C226.78,22.69 226.55,23.03 226.44,23.12C226.32,23.22 226.07,23.64 225.86,24.05C225.66,24.47 225.37,25.00 225.22,25.22C224.40,26.42 224.00,27.08 224.00,27.22C224.00,27.30 223.80,27.60 223.55,27.88C223.03,28.44 222.38,29.43 222.00,30.21C221.86,30.50 221.61,30.90 221.44,31.10C221.27,31.30 221.02,31.71 220.89,32.02C220.77,32.32 220.56,32.65 220.44,32.74C220.33,32.84 220.09,33.19 219.93,33.52C219.76,33.85 219.56,34.12 219.49,34.12C219.42,34.12 219.19,34.49 218.99,34.94C218.78,35.39 218.53,35.79 218.43,35.83C218.32,35.87 218.14,36.11 218.01,36.36C217.88,36.61 217.57,37.11 217.33,37.48C217.08,37.85 216.88,38.23 216.88,38.33C216.88,38.43 216.73,38.65 216.56,38.82C216.39,39.00 216.13,39.37 215.98,39.66C215.83,39.95 215.52,40.43 215.29,40.74C215.06,41.04 214.88,41.35 214.88,41.43C214.88,41.51 214.73,41.72 214.55,41.88C214.37,42.05 214.08,42.47 213.91,42.81C213.73,43.16 213.46,43.60 213.30,43.79C213.13,43.99 213.00,44.22 213.00,44.32C213.00,44.42 212.82,44.71 212.59,44.97C212.36,45.23 212.03,45.66 211.84,45.94C210.86,47.36 209.68,48.53 208.71,49.02C208.42,49.16 208.07,49.39 207.92,49.52C207.34,50.05 205.31,50.29 201.03,50.34L197.13,50.39L196.81,50.07ZM14.72,45.94C14.46,45.84 14.07,45.63 13.84,45.46C13.62,45.30 13.25,45.09 13.02,45.00C12.79,44.91 12.38,44.65 12.10,44.42C11.83,44.19 11.53,44.00 11.44,44.00C11.34,44.00 11.11,43.85 10.92,43.66C10.72,43.47 10.34,43.15 10.06,42.95C9.17,42.30 6.36,39.34 6.05,38.73C5.89,38.41 5.65,38.07 5.52,37.98C5.05,37.64 3.24,34.01 2.99,32.89C2.91,32.52 2.68,31.95 2.48,31.63C2.16,31.12 2.10,30.87 1.99,29.56C1.93,28.73 1.81,27.76 1.73,27.38C1.53,26.39 1.56,24.21 1.80,21.87C2.10,18.92 2.19,18.45 2.55,17.92C2.73,17.66 2.94,17.12 3.02,16.71C3.10,16.31 3.30,15.77 3.47,15.52C3.64,15.27 3.89,14.75 4.02,14.38C4.15,14.00 4.42,13.45 4.63,13.17C4.83,12.88 5.00,12.59 5.00,12.52C5.00,12.44 5.16,12.20 5.35,11.97C5.54,11.75 5.84,11.33 6.02,11.05C6.20,10.77 6.51,10.37 6.71,10.15C6.90,9.93 7.32,9.46 7.62,9.12C7.93,8.77 8.30,8.39 8.43,8.27C8.56,8.16 8.88,7.87 9.13,7.62C9.83,6.97 10.63,6.34 11.16,6.01C11.42,5.86 11.79,5.56 11.99,5.36C12.19,5.16 12.44,5.00 12.54,5.00C12.64,5.00 12.96,4.80 13.25,4.56C13.54,4.32 13.88,4.12 14.01,4.12C14.13,4.12 14.67,3.90 15.20,3.62C15.73,3.34 16.48,3.05 16.87,2.98C17.25,2.91 17.77,2.72 18.02,2.55C18.39,2.29 18.76,2.20 20.02,2.05C20.87,1.96 22.38,1.77 23.37,1.64L25.18,1.41L27.24,1.69C28.38,1.85 29.80,2.03 30.41,2.11C31.15,2.20 31.67,2.34 32.03,2.54C32.32,2.71 32.87,2.92 33.25,3.00C33.63,3.08 34.27,3.34 34.69,3.56C35.10,3.79 35.68,4.04 35.97,4.12C36.26,4.20 36.69,4.43 36.92,4.63C37.16,4.83 37.40,5.00 37.48,5.00C37.55,5.00 37.86,5.21 38.16,5.47C38.47,5.73 38.88,6.04 39.08,6.15C40.79,7.18 44.09,10.71 44.98,12.46C45.11,12.72 45.34,13.04 45.48,13.17C45.62,13.30 45.83,13.69 45.95,14.05C46.07,14.40 46.32,14.97 46.51,15.31C46.69,15.66 46.92,16.24 47.00,16.61C47.09,16.99 47.32,17.59 47.51,17.95C47.75,18.42 47.88,18.88 47.94,19.58C47.99,20.12 48.17,21.10 48.34,21.75C48.81,23.53 48.88,26.03 48.50,27.56C48.35,28.18 48.13,29.35 48.00,30.16C47.84,31.18 47.68,31.79 47.47,32.16C47.30,32.45 47.09,33.00 47.00,33.38C46.92,33.75 46.70,34.34 46.51,34.69C46.32,35.03 46.07,35.58 45.95,35.90C45.83,36.22 45.57,36.69 45.37,36.95C45.17,37.20 45.00,37.47 45.00,37.54C45.00,37.61 44.78,37.95 44.52,38.30C44.25,38.65 43.96,39.08 43.87,39.25C43.78,39.42 43.52,39.76 43.29,40.00C40.55,42.83 40.48,42.89 40.21,42.80C39.79,42.68 39.24,42.11 39.00,41.55C38.87,41.26 38.71,40.99 38.63,40.94C38.55,40.89 38.29,40.45 38.05,39.97C37.82,39.48 37.55,38.99 37.45,38.88C37.36,38.78 37.16,38.44 37.00,38.14C36.85,37.84 36.57,37.37 36.36,37.09C36.16,36.81 36.00,36.52 36.00,36.44C36.00,36.36 35.83,36.14 35.63,35.94C35.42,35.74 35.14,35.27 35.00,34.90C34.86,34.52 34.63,34.07 34.49,33.90C34.31,33.67 34.28,33.55 34.39,33.42C34.53,33.25 34.66,33.28 35.00,33.57C35.10,33.66 35.52,33.85 35.93,33.99C36.34,34.13 36.82,34.41 37.00,34.60C37.17,34.80 37.57,35.02 37.90,35.11C38.22,35.20 38.63,35.44 38.83,35.64C39.07,35.89 39.29,36.00 39.59,36.00C39.96,36.00 40.00,35.97 40.00,35.62C40.00,35.32 39.92,35.21 39.57,35.04C39.33,34.93 39.08,34.68 39.00,34.50C38.92,34.31 38.67,34.02 38.43,33.86C37.32,33.08 33.83,30.13 33.06,29.33C32.86,29.11 32.56,28.85 32.40,28.75C32.03,28.51 32.14,28.17 32.62,28.06C33.06,27.97 34.46,28.15 36.94,28.63C39.63,29.16 42.12,29.13 42.12,28.58C42.13,28.35 41.65,28.17 40.38,27.94C39.73,27.82 39.23,27.65 39.07,27.51C38.74,27.20 38.34,27.05 37.54,26.94C37.15,26.89 36.67,26.71 36.34,26.49C36.02,26.28 35.42,26.05 34.87,25.94C33.83,25.72 33.50,25.49 33.50,25.00C33.50,24.48 33.73,24.37 35.46,24.12C36.34,23.98 37.46,23.74 37.94,23.57C38.42,23.40 39.43,23.18 40.18,23.07C40.93,22.96 41.67,22.79 41.83,22.69C42.17,22.47 42.22,22.06 41.93,21.95C41.64,21.84 38.01,21.86 35.52,22.00C33.13,22.12 32.75,22.06 32.75,21.58C32.75,21.34 32.90,21.18 33.41,20.89C33.77,20.67 34.32,20.30 34.62,20.06C34.93,19.82 35.44,19.46 35.75,19.26C36.45,18.81 37.40,18.06 37.92,17.55C38.13,17.33 38.50,17.06 38.72,16.95C38.95,16.83 39.18,16.61 39.24,16.46C39.37,16.11 39.58,15.94 40.06,15.79C40.27,15.72 40.44,15.59 40.44,15.49C40.44,15.20 39.54,15.29 39.24,15.61C39.10,15.76 38.89,15.88 38.78,15.88C38.34,15.88 37.62,16.14 37.28,16.44C37.08,16.60 36.68,16.82 36.39,16.92C36.10,17.02 35.65,17.24 35.40,17.42C35.15,17.60 34.69,17.83 34.38,17.93C34.08,18.04 33.66,18.26 33.45,18.42C32.73,18.97 31.04,19.63 30.85,19.43C30.69,19.27 31.13,17.97 31.49,17.56C31.70,17.31 31.96,16.91 32.07,16.65C32.18,16.40 32.40,16.05 32.56,15.88C32.72,15.70 32.97,15.26 33.11,14.89C33.25,14.52 33.47,14.10 33.60,13.95C33.73,13.81 33.93,13.41 34.05,13.07C34.16,12.73 34.40,12.30 34.58,12.11C34.80,11.88 34.92,11.58 34.97,11.20C35.03,10.67 35.01,10.62 34.76,10.63C34.61,10.63 34.36,10.77 34.21,10.96C34.06,11.14 33.71,11.53 33.44,11.83C33.16,12.14 32.76,12.59 32.54,12.85C32.32,13.10 31.91,13.57 31.63,13.88C30.68,14.92 29.17,16.81 28.96,17.21C28.69,17.72 28.54,17.81 28.29,17.61C27.99,17.35 28.13,14.71 28.55,13.00C29.22,10.23 29.22,7.75 28.56,7.75C28.31,7.75 28.16,8.08 28.00,9.04C27.91,9.54 27.71,10.08 27.50,10.40C27.28,10.74 27.07,11.32 26.94,12.00C26.82,12.58 26.57,13.40 26.37,13.81C26.18,14.22 25.98,14.89 25.94,15.30C25.77,16.78 25.47,16.96 24.83,15.96C24.32,15.17 24.18,14.74 23.99,13.44C23.91,12.84 23.73,12.24 23.56,11.94C23.37,11.62 23.19,10.98 23.07,10.19C22.96,9.50 22.81,8.79 22.74,8.61C22.62,8.31 22.17,8.00 21.87,8.00C21.71,8.00 21.72,9.26 21.90,13.40C22.02,16.10 22.02,16.93 21.90,17.19C21.68,17.65 21.39,17.54 20.98,16.84C20.79,16.51 20.51,16.12 20.38,15.97C20.24,15.82 20.12,15.66 20.12,15.60C20.13,15.54 19.89,15.24 19.59,14.94C18.84,14.16 18.35,13.53 17.96,12.86C17.78,12.54 17.54,12.25 17.44,12.20C17.33,12.16 17.16,11.93 17.06,11.69C16.96,11.45 16.73,11.16 16.55,11.05C16.38,10.93 16.12,10.62 15.99,10.35C15.67,9.72 15.21,9.71 15.15,10.33C15.12,10.66 15.18,10.79 15.49,11.01C15.77,11.22 15.90,11.45 16.00,11.94C16.08,12.33 16.25,12.70 16.43,12.87C16.60,13.03 16.80,13.43 16.88,13.76C16.96,14.10 17.19,14.60 17.40,14.89C17.60,15.17 17.85,15.63 17.95,15.92C18.05,16.20 18.27,16.58 18.43,16.75C18.91,17.26 19.58,19.13 19.28,19.12C18.84,19.11 18.02,18.81 17.71,18.55C17.50,18.37 17.04,18.10 16.68,17.94C16.32,17.78 15.99,17.59 15.94,17.50C15.89,17.42 15.45,17.17 14.96,16.95C14.46,16.72 13.99,16.45 13.89,16.34C13.80,16.22 13.39,16.04 12.98,15.92C12.56,15.81 12.20,15.63 12.16,15.54C12.05,15.26 11.43,15.00 10.88,15.00C10.01,15.00 10.08,15.59 11.00,15.97C11.24,16.07 11.65,16.36 11.90,16.61C12.16,16.86 12.61,17.27 12.90,17.53C13.20,17.79 13.70,18.24 14.02,18.53C14.34,18.82 14.85,19.25 15.14,19.47C15.44,19.70 15.94,20.08 16.25,20.31C16.56,20.55 17.02,20.86 17.28,21.00C17.85,21.31 17.91,21.70 17.42,21.88C16.97,22.05 13.19,21.71 11.69,21.37C10.36,21.06 7.97,20.91 7.47,21.11C7.07,21.27 7.02,21.56 7.37,21.74C7.50,21.82 8.03,21.94 8.56,22.01C9.23,22.12 9.66,22.26 10.06,22.53C10.45,22.78 10.93,22.95 11.65,23.07C12.22,23.17 13.00,23.39 13.38,23.56C13.76,23.73 14.49,23.92 15.00,24.00C16.29,24.18 16.88,24.35 16.88,24.56C16.88,24.65 16.59,24.95 16.25,25.23C15.73,25.64 15.47,25.75 14.72,25.87C13.57,26.06 13.02,26.22 12.61,26.52C12.27,26.75 11.57,26.93 10.44,27.07C9.90,27.14 9.74,27.23 9.31,27.70C9.03,28.00 8.71,28.25 8.60,28.25C8.48,28.25 8.35,28.31 8.30,28.39C8.24,28.50 8.36,28.51 8.76,28.45C9.36,28.35 11.08,28.22 14.60,28.00C16.39,27.88 16.92,27.88 17.07,28.00C17.32,28.22 17.30,28.47 16.98,28.72C16.37,29.21 15.30,30.14 15.12,30.33C14.78,30.71 13.94,31.42 12.61,32.44C12.26,32.71 11.74,33.14 11.45,33.38C11.17,33.62 10.78,33.92 10.60,34.04C10.41,34.16 10.17,34.41 10.07,34.61C9.97,34.80 9.71,35.04 9.50,35.13C9.21,35.24 9.12,35.35 9.15,35.55C9.21,35.95 9.77,35.96 10.19,35.57C10.38,35.39 10.77,35.19 11.05,35.12C11.33,35.04 11.66,34.96 11.77,34.93C11.88,34.89 12.07,34.73 12.18,34.56C12.30,34.37 12.62,34.19 13.02,34.07C13.38,33.96 13.82,33.74 14.00,33.57C14.17,33.40 14.57,33.17 14.88,33.06C15.76,32.75 16.73,32.02 17.02,31.45C17.16,31.17 17.42,30.75 17.58,30.53C17.75,30.31 17.97,29.93 18.07,29.68C18.26,29.23 18.64,29.00 19.18,29.00C19.34,29.00 19.60,28.89 19.76,28.77C20.03,28.55 20.04,28.50 19.90,28.03C19.77,27.59 19.78,27.43 20.00,26.84C20.14,26.47 20.37,26.05 20.52,25.92C20.66,25.79 20.91,25.41 21.06,25.06C21.22,24.72 21.49,24.24 21.67,24.01C21.85,23.77 22.00,23.51 22.00,23.43C22.00,23.35 22.17,23.05 22.38,22.77C22.58,22.48 22.88,21.98 23.04,21.65C23.26,21.18 23.38,21.06 23.63,21.06C23.86,21.06 23.95,21.14 23.98,21.37C24.07,22.01 23.86,22.99 23.50,23.52C23.27,23.87 23.08,24.41 22.96,25.06C22.85,25.61 22.59,26.40 22.38,26.81C21.87,27.83 21.78,28.48 22.10,28.87L22.35,29.18L26.05,29.20L29.75,29.23L30.82,29.75C32.03,30.35 32.10,30.43 31.81,30.75C31.60,30.98 31.33,30.99 26.56,31.03C20.76,31.07 21.13,30.99 20.88,32.29C20.80,32.71 20.59,33.36 20.42,33.73C20.25,34.10 20.05,34.74 19.99,35.17C19.92,35.59 19.70,36.27 19.49,36.67C19.29,37.07 19.04,37.81 18.94,38.32C18.84,38.83 18.62,39.49 18.45,39.79C18.27,40.08 18.04,40.77 17.92,41.32C17.81,41.87 17.59,42.57 17.44,42.88C17.28,43.18 17.09,43.77 17.01,44.19C16.78,45.34 16.63,45.73 16.34,45.94C16.01,46.17 15.35,46.17 14.72,45.94ZM132.88,41.75C132.08,41.70 131.07,41.56 130.62,41.45C130.18,41.33 129.28,41.13 128.64,41.00C127.94,40.86 127.28,40.64 127.01,40.46C126.77,40.30 126.31,40.02 126.00,39.84C125.67,39.65 125.31,39.31 125.12,39.01C124.95,38.72 124.66,38.29 124.48,38.06C124.29,37.80 124.12,37.38 124.07,37.03C124.03,36.71 123.93,36.04 123.85,35.56C123.64,34.21 124.09,30.05 124.55,29.14C124.74,28.78 124.97,28.08 125.08,27.59C125.19,27.09 125.41,26.46 125.57,26.18C125.73,25.90 125.93,25.40 126.01,25.07C126.10,24.74 126.31,24.29 126.50,24.08C126.69,23.86 126.94,23.42 127.06,23.09C127.19,22.76 127.44,22.38 127.63,22.25C127.81,22.12 128.04,21.84 128.12,21.63C128.21,21.43 128.42,21.17 128.61,21.05C128.79,20.93 129.08,20.70 129.25,20.53C129.67,20.13 131.14,19.18 131.51,19.06C131.68,19.02 132.01,18.82 132.25,18.63C132.76,18.23 132.96,18.16 133.93,18.00C134.32,17.94 134.96,17.73 135.35,17.55C136.18,17.16 137.58,17.01 140.50,17.01C143.25,17.01 144.84,17.16 145.47,17.49C145.77,17.64 146.40,17.85 146.89,17.96C147.37,18.07 147.92,18.28 148.10,18.44C148.29,18.59 148.70,18.85 149.02,19.01C149.63,19.33 150.54,20.49 150.87,21.38C151.29,22.50 151.13,27.33 150.61,29.38C150.20,30.99 150.99,30.84 142.50,30.92C134.16,31.01 134.74,30.92 134.33,32.14C134.21,32.51 134.10,33.22 134.08,33.73L134.06,34.64L134.73,35.27C135.37,35.89 135.40,35.90 136.01,35.85C136.44,35.80 136.74,35.69 136.97,35.48C137.16,35.31 137.46,35.08 137.64,34.97C137.84,34.85 138.05,34.52 138.20,34.11C138.37,33.64 138.56,33.36 138.86,33.16C139.29,32.88 139.30,32.88 144.01,32.88C148.79,32.88 149.27,32.92 149.43,33.34C149.47,33.44 149.43,33.64 149.35,33.79C149.27,33.94 149.11,34.38 148.99,34.78C148.87,35.19 148.57,35.73 148.29,36.06C147.46,37.06 145.70,38.77 145.31,38.96C145.11,39.07 144.82,39.26 144.67,39.40C144.53,39.53 143.99,39.80 143.48,39.99C142.98,40.19 142.27,40.47 141.92,40.61C141.57,40.75 140.77,40.95 140.15,41.06C139.53,41.17 138.69,41.36 138.29,41.49C137.40,41.77 134.94,41.89 132.88,41.75ZM98.81,41.63C98.61,41.58 98.27,41.45 98.06,41.35C97.86,41.24 97.44,41.08 97.14,41.00C96.41,40.81 95.20,39.62 95.07,38.99C95.02,38.76 94.87,38.24 94.74,37.84C94.45,36.97 94.42,35.29 94.68,34.19C94.78,33.77 94.94,32.69 95.05,31.78C95.18,30.66 95.33,29.97 95.50,29.62C95.65,29.34 95.87,28.61 96.00,28.01C96.13,27.40 96.37,26.58 96.54,26.17C96.71,25.77 96.92,25.18 97.00,24.88C97.08,24.57 97.31,24.05 97.52,23.73C97.72,23.40 97.95,22.93 98.02,22.68C98.09,22.43 98.28,22.10 98.44,21.94C98.61,21.79 98.87,21.43 99.04,21.15C99.42,20.47 100.54,19.30 101.04,19.04C101.26,18.94 101.61,18.69 101.81,18.49C102.04,18.28 102.44,18.08 102.81,18.00C103.16,17.93 103.72,17.71 104.06,17.53C104.65,17.21 104.79,17.19 106.72,17.15L108.75,17.10L109.66,17.54C110.15,17.78 110.75,18.02 110.99,18.07C111.24,18.12 111.59,18.34 111.86,18.63C112.16,18.95 112.48,19.15 112.81,19.23C113.69,19.42 113.80,19.27 114.07,17.64C114.17,17.02 114.39,16.26 114.56,15.92C114.73,15.59 114.93,14.89 115.01,14.38C115.08,13.85 115.31,13.08 115.52,12.62C115.75,12.14 115.97,11.37 116.07,10.70C116.34,8.92 115.83,9.07 121.86,9.03C126.66,8.99 126.98,9.01 127.25,9.22C127.53,9.45 127.53,9.46 127.32,9.87C127.20,10.10 127.02,10.79 126.92,11.41C126.82,12.02 126.60,12.79 126.44,13.11C126.27,13.43 126.06,14.19 125.96,14.83C125.86,15.45 125.69,16.13 125.59,16.33C125.38,16.74 124.88,18.82 124.87,19.27C124.87,19.43 124.71,19.91 124.51,20.34C124.29,20.80 124.09,21.51 124.01,22.09C123.92,22.74 123.74,23.31 123.48,23.81C123.23,24.30 123.03,24.94 122.92,25.67C122.82,26.28 122.60,27.04 122.44,27.36C122.28,27.68 122.06,28.45 121.95,29.07C121.85,29.69 121.62,30.57 121.45,31.02C121.28,31.48 121.05,32.37 120.94,33.00C120.83,33.64 120.60,34.43 120.43,34.76C120.26,35.10 120.06,35.84 119.96,36.53C119.84,37.33 119.68,37.89 119.46,38.26C119.28,38.57 119.07,39.20 118.99,39.72C118.75,41.16 119.16,41.06 113.43,41.10C108.61,41.14 108.51,41.13 108.26,40.88C108.10,40.72 108.00,40.46 108.00,40.20C108.00,39.96 107.97,39.68 107.92,39.57C107.83,39.31 107.33,39.32 107.11,39.58C107.02,39.69 106.72,39.89 106.44,40.01C106.16,40.14 105.80,40.36 105.62,40.50C105.45,40.63 104.92,40.84 104.44,40.95C103.96,41.06 103.16,41.29 102.67,41.45C101.74,41.76 99.72,41.85 98.81,41.63ZM219.34,41.58C219.24,41.33 219.50,41.12 219.90,41.12C220.27,41.12 220.36,41.34 220.10,41.60C219.90,41.80 219.42,41.79 219.34,41.58ZM222.46,41.67C222.17,41.38 222.98,40.75 223.43,40.92C223.66,41.01 223.69,41.39 223.47,41.60C223.32,41.76 222.60,41.81 222.46,41.67ZM52.88,41.03C52.18,40.91 52.06,40.43 52.55,39.77C52.75,39.49 52.92,38.98 53.06,38.15C53.18,37.48 53.41,36.68 53.56,36.37C53.72,36.06 53.94,35.33 54.05,34.74C54.16,34.15 54.39,33.26 54.56,32.77C54.74,32.27 54.97,31.32 55.08,30.65C55.20,29.93 55.40,29.23 55.57,28.94C55.75,28.62 55.91,28.05 56.00,27.38C56.09,26.65 56.25,26.08 56.50,25.59C56.72,25.17 56.95,24.43 57.06,23.78C57.17,23.18 57.39,22.43 57.56,22.11C57.73,21.79 57.95,21.00 58.06,20.36C58.18,19.71 58.38,18.94 58.51,18.63C58.65,18.33 58.87,17.48 59.01,16.76C59.15,16.03 59.41,15.11 59.59,14.70C59.76,14.30 59.95,13.54 60.02,13.02C60.09,12.39 60.26,11.80 60.50,11.31C60.71,10.90 60.93,10.29 60.99,9.96C61.11,9.29 61.30,9.02 61.69,8.98C61.83,8.97 66.84,8.97 72.84,8.98L83.74,9.00L83.94,9.30C84.11,9.56 84.11,9.68 83.89,10.64C83.75,11.22 83.53,11.96 83.39,12.29C83.25,12.61 83.04,13.40 82.93,14.03C82.72,15.27 82.44,15.85 81.87,16.25C81.52,16.50 81.37,16.51 76.33,16.49C70.04,16.47 70.23,16.42 69.98,18.08C69.91,18.55 69.68,19.30 69.47,19.74C69.01,20.69 68.88,21.62 69.17,21.86C69.31,21.98 70.48,22.01 74.37,22.00C80.43,21.99 80.80,22.05 80.33,22.97C80.22,23.18 80.07,23.73 80.00,24.20C79.92,24.68 79.70,25.54 79.49,26.12C79.29,26.71 79.07,27.50 79.00,27.88C78.78,29.07 79.15,29.00 72.89,29.00C66.82,29.00 67.02,28.97 66.74,29.84C66.66,30.10 66.49,30.52 66.36,30.78C66.23,31.03 66.06,31.68 65.99,32.22C65.92,32.79 65.72,33.50 65.51,33.94C65.31,34.35 65.06,35.19 64.94,35.80C64.83,36.41 64.60,37.18 64.44,37.50C64.27,37.83 64.07,38.48 64.00,38.95C63.76,40.41 63.66,40.62 63.08,40.88C62.60,41.10 62.21,41.12 57.88,41.11C55.30,41.10 53.05,41.07 52.88,41.03ZM79.29,41.00C79.14,40.94 78.99,40.78 78.94,40.64C78.84,40.32 79.17,38.44 79.43,37.81C79.68,37.22 80.07,35.64 80.17,34.87C80.21,34.56 80.38,34.00 80.55,33.62C80.72,33.25 80.94,32.42 81.04,31.79C81.16,31.06 81.34,30.45 81.54,30.10C81.73,29.78 81.93,29.12 82.05,28.48C82.15,27.89 82.37,27.13 82.55,26.80C82.72,26.46 82.95,25.70 83.05,25.10C83.15,24.51 83.32,23.86 83.42,23.66C83.64,23.24 83.92,22.14 84.12,20.97C84.25,20.17 84.98,18.14 85.25,17.81C85.41,17.62 91.28,17.48 93.87,17.60L95.68,17.69L95.86,18.06C96.09,18.53 95.90,19.55 95.36,20.77C95.16,21.23 95.00,21.79 95.00,22.02C95.00,22.60 94.71,23.60 94.40,24.12C94.26,24.37 94.06,25.05 93.95,25.65C93.85,26.25 93.60,27.12 93.40,27.59C93.19,28.05 92.99,28.75 92.94,29.12C92.89,29.50 92.72,30.15 92.56,30.56C92.21,31.47 92.07,32.02 91.87,33.25C91.79,33.77 91.59,34.47 91.43,34.82C91.27,35.17 91.06,35.97 90.96,36.59C90.84,37.32 90.66,37.92 90.46,38.27C90.28,38.58 90.08,39.19 90.00,39.69C89.77,41.16 90.17,41.06 84.47,41.09C81.73,41.11 79.44,41.07 79.29,41.00ZM151.03,40.94C150.50,40.71 150.44,40.51 150.67,39.79C150.78,39.46 150.98,38.65 151.11,37.99C151.24,37.33 151.47,36.56 151.61,36.27C151.76,35.99 151.93,35.32 152.01,34.78C152.09,34.15 152.26,33.56 152.51,33.07C152.76,32.60 152.96,31.93 153.07,31.22C153.17,30.60 153.39,29.83 153.57,29.48C153.75,29.14 153.97,28.39 154.06,27.81C154.15,27.24 154.35,26.50 154.49,26.17C154.64,25.84 154.90,24.88 155.07,24.03C155.23,23.19 155.48,22.27 155.62,22.00C155.76,21.73 155.94,21.07 156.01,20.54C156.09,19.98 156.30,19.24 156.51,18.81C156.70,18.40 156.93,17.64 157.00,17.12C157.08,16.60 157.31,15.85 157.51,15.42C157.72,15.00 157.97,14.17 158.07,13.59C158.17,13.00 158.37,12.26 158.51,11.95C158.65,11.63 158.85,10.94 158.95,10.41C159.05,9.87 159.22,9.35 159.32,9.25C159.48,9.09 160.27,9.06 164.63,9.03C169.69,8.99 169.74,8.99 170.01,9.26C170.15,9.40 170.24,9.60 170.20,9.71C170.16,9.81 170.06,10.30 169.99,10.79C169.91,11.31 169.70,11.99 169.48,12.42C169.26,12.86 169.04,13.55 168.94,14.18C168.85,14.74 168.63,15.49 168.46,15.84C168.27,16.21 168.06,16.97 167.94,17.69C167.83,18.35 167.63,19.16 167.50,19.48C167.21,20.17 166.88,21.53 166.88,22.06C166.88,22.27 166.70,22.80 166.49,23.24C166.25,23.76 166.07,24.40 165.99,25.04C165.90,25.72 165.74,26.26 165.49,26.76C165.25,27.21 165.04,27.88 164.94,28.54C164.84,29.15 164.63,29.87 164.44,30.23C164.26,30.57 164.05,31.24 163.99,31.71C163.85,32.70 163.75,33.07 163.39,33.98C163.24,34.34 163.03,35.16 162.92,35.79C162.82,36.42 162.59,37.25 162.43,37.63C162.27,38.02 162.05,38.83 161.95,39.44C161.73,40.68 161.62,40.84 160.92,41.01C160.07,41.20 151.51,41.15 151.03,40.94ZM165.41,40.94C165.03,40.67 165.05,40.29 165.50,39.44C165.73,39.00 165.94,38.31 166.07,37.59C166.18,36.95 166.38,36.24 166.52,36.01C166.66,35.77 166.88,35.01 167.01,34.32C167.14,33.63 167.41,32.59 167.62,32.00C167.82,31.42 168.04,30.54 168.10,30.05C168.17,29.56 168.37,28.88 168.55,28.52C168.75,28.14 168.93,27.50 169.00,26.96C169.07,26.42 169.26,25.73 169.50,25.24C169.71,24.78 169.96,23.96 170.06,23.40C170.16,22.85 170.38,22.09 170.55,21.73C170.72,21.36 170.95,20.53 171.06,19.88C171.26,18.67 171.45,18.27 172.02,17.84C172.33,17.61 172.60,17.60 177.33,17.61C182.22,17.63 182.32,17.63 182.53,17.89C182.82,18.24 182.81,18.42 182.44,19.04C182.26,19.35 182.08,19.95 182.00,20.50C181.92,21.02 181.69,21.80 181.48,22.25C181.27,22.70 181.02,23.54 180.92,24.12C180.82,24.71 180.60,25.50 180.44,25.88C180.27,26.25 180.08,26.96 180.00,27.44C179.92,27.92 179.67,28.88 179.44,29.56C179.21,30.25 178.99,31.15 178.94,31.56C178.89,31.98 178.69,32.65 178.49,33.06C178.30,33.48 178.07,34.23 178.00,34.75C177.92,35.27 177.69,36.02 177.50,36.44C177.30,36.85 177.05,37.69 176.93,38.31C176.70,39.59 176.16,40.76 175.73,40.96C175.54,41.04 173.66,41.10 170.56,41.11C166.27,41.13 165.65,41.11 165.41,40.94ZM220.33,40.35C220.29,39.99 220.25,39.28 220.25,38.78C220.25,37.91 220.24,37.88 219.95,37.88C219.30,37.88 219.05,37.57 219.43,37.25C219.69,37.04 220.11,37.21 220.20,37.56C220.24,37.73 220.40,37.88 220.57,37.93C220.76,37.97 220.90,38.13 220.95,38.32C221.10,38.91 221.86,38.97 222.11,38.43C222.18,38.26 222.33,38.12 222.44,38.12C222.55,38.12 222.75,37.93 222.90,37.68C223.09,37.36 223.23,37.25 223.42,37.27C223.80,37.33 223.78,37.88 223.40,38.07C223.11,38.22 222.47,39.12 222.31,39.62C222.26,39.79 222.00,40.00 221.64,40.15C221.32,40.29 220.92,40.54 220.74,40.71L220.41,41.01L220.33,40.35ZM218.40,40.22C218.19,40.01 218.21,38.82 218.42,38.64C218.65,38.45 218.75,38.70 218.75,39.48C218.75,40.18 218.62,40.45 218.40,40.22ZM109.31,33.36C109.86,32.86 110.12,32.30 110.12,31.62C110.12,31.45 110.30,30.96 110.51,30.53C110.72,30.10 110.97,29.31 111.07,28.78C111.17,28.25 111.40,27.54 111.57,27.22C112.00,26.39 112.10,25.57 111.82,25.25C111.24,24.61 109.76,24.48 108.77,24.99C108.18,25.29 108.06,25.44 107.90,26.04C107.82,26.30 107.62,26.71 107.45,26.94C107.27,27.17 107.04,27.74 106.93,28.20C106.82,28.66 106.59,29.32 106.41,29.67C106.14,30.19 106.07,30.54 106.02,31.47L105.97,32.62L106.64,33.25C107.28,33.84 107.34,33.87 108.03,33.87C108.71,33.87 108.79,33.84 109.31,33.36ZM140.76,25.93C141.10,25.62 141.10,24.35 140.76,23.79C140.16,22.82 138.62,22.70 137.59,23.55C137.27,23.81 136.97,24.14 136.93,24.29C136.88,24.44 136.71,24.74 136.55,24.96C135.82,25.94 136.45,26.27 138.91,26.20C140.22,26.16 140.56,26.11 140.76,25.93ZM86.49,15.22C85.88,15.00 85.92,13.54 86.57,12.42C86.73,12.14 86.92,11.52 87.00,11.05C87.20,9.78 87.35,9.39 87.75,9.19C88.20,8.96 97.81,8.89 98.24,9.12C98.55,9.28 98.57,9.65 98.31,10.05C98.20,10.21 98.03,10.84 97.92,11.45C97.82,12.06 97.63,12.73 97.50,12.94C97.37,13.14 97.19,13.65 97.08,14.05C96.76,15.27 97.16,15.18 91.61,15.25C88.93,15.28 86.62,15.27 86.49,15.22ZM172.78,15.10C172.38,14.90 172.33,14.58 172.61,14.02C172.75,13.75 172.94,13.03 173.04,12.41C173.17,11.64 173.33,11.13 173.54,10.80C173.72,10.53 173.90,10.11 173.94,9.85C174.10,8.95 173.88,8.99 179.58,8.99C185.59,8.99 185.25,8.90 184.82,10.44C184.73,10.78 184.54,11.32 184.40,11.62C184.26,11.93 184.06,12.71 183.95,13.35C183.64,15.33 183.90,15.25 177.85,15.24C174.71,15.24 172.97,15.19 172.78,15.10ZM9.97,14.60C9.88,14.34 9.52,14.18 9.36,14.34C9.29,14.41 9.26,14.54 9.31,14.61C9.42,14.80 10.03,14.79 9.97,14.60ZM35.68,9.97C35.76,9.72 35.75,9.58 35.65,9.47C35.45,9.28 35.30,9.45 35.19,9.98C35.11,10.34 35.13,10.39 35.33,10.35C35.45,10.33 35.61,10.16 35.68,9.97Z"/></svg>
